<?xml version="1.0" encoding="UTF-8"?>
<svg xmlns="http://www.w3.org/2000/svg" width="412.079" height="357.709" viewBox="0 0 412.079 357.709">
  <defs>
    <clipPath id="a">
      <path class="a" d="M446.941-426.738 343.9-486.284a3.077 3.077 0 0 0-4.615 2.665v27.551a5.769 5.769 0 0 0 2.884 5l43.906 25.349-43.906 25.349a5.769 5.769 0 0 0-2.884 5v27.551a3.077 3.077 0 0 0 4.615 2.664l73.7-42.549 29.344-16.942a1.2 1.2 0 0 0-.003-2.092Z" transform="translate(-339.284 486.701)" />
    </clipPath>
    <style>.a,.c,.e{fill:none}.c,.e{stroke-miterlimit:10}.c{stroke:#9f9cf9;stroke-linecap:round;stroke-width:.731px}.e{stroke:#0357ff}.f{fill:#ff5276}.g{fill:#ffcf00}.k{fill:#6d6df7}</style>
  </defs>
  <g transform="translate(-30 -1.961)">
    <g clip-path="url(#a)" transform="translate(235.344 237.715)">
      <path class="a" d="M105.24-3.911h5.771V1.86h-5.771z" />
      <path class="c" d="M108.125-1.747v1.443M108.847-1.026h-1.443" />
      <path class="a" d="M105.24 1.86h5.771v5.771h-5.771z" />
      <path class="c" d="M108.125 4.024v1.443M108.847 4.745h-1.443" />
      <path class="a" d="M105.24 7.63h5.771v5.771h-5.771z" />
      <path class="c" d="M108.125 9.794v1.443M108.847 10.515h-1.443" />
      <path class="a" d="M105.24 13.401h5.771v5.771h-5.771z" />
      <path class="c" d="M108.125 15.565v1.443M108.847 16.286h-1.443" />
      <path class="a" d="M105.24 19.172h5.771v5.771h-5.771z" />
      <path class="c" d="M108.125 21.336v1.443M108.847 22.057h-1.443" />
      <path class="a" d="M105.24 24.942h5.771v5.771h-5.771z" />
      <path class="c" d="M108.125 27.106v1.443M108.847 27.827h-1.443" />
      <path class="a" d="M105.24 30.713h5.771v5.771h-5.771z" />
      <path class="c" d="M108.125 32.877v1.443M108.847 33.598h-1.443" />
      <path class="a" d="M105.24 36.484h5.771v5.771h-5.771z" />
      <path class="c" d="M108.125 38.648v1.443M108.847 39.369h-1.443" />
      <path class="a" d="M105.24 42.254h5.771v5.771h-5.771z" />
      <path class="c" d="M108.125 44.418v1.443M108.847 45.139h-1.443" />
      <path class="a" d="M105.24 48.025h5.771v5.771h-5.771z" />
      <path class="c" d="M108.125 50.189v1.443M108.847 50.91h-1.443" />
      <path class="a" d="M105.24 53.795h5.771v5.771h-5.771z" />
      <path class="c" d="M108.125 55.959v1.443M108.847 56.68h-1.443" />
      <path class="a" d="M105.24 59.566h5.771v5.771h-5.771z" />
      <path class="c" d="M108.125 61.73v1.443M108.847 62.451h-1.443" />
      <path class="a" d="M105.24 65.337h5.771v5.771h-5.771z" />
      <path class="c" d="M108.125 67.501v1.443M108.847 68.222h-1.443" />
      <path class="a" d="M105.24 71.107h5.771v5.771h-5.771z" />
      <path class="c" d="M108.125 73.271v1.443M108.847 73.992h-1.443" />
      <path class="a" d="M105.24 76.878h5.771v5.771h-5.771z" />
      <path class="c" d="M108.125 79.042v1.443M108.847 79.763h-1.443" />
      <path class="a" d="M105.24 82.648h5.771v5.771h-5.771z" />
      <path class="c" d="M108.125 84.812v1.443M108.847 85.533h-1.443" />
      <path class="a" d="M105.24 88.419h5.771v5.771h-5.771z" />
      <path class="c" d="M108.125 90.583v1.443M108.847 91.304h-1.443" />
      <path class="a" d="M105.24 94.19h5.771v5.771h-5.771z" />
      <path class="c" d="M108.125 96.354v1.443M108.847 97.075h-1.443" />
      <path class="a" d="M105.24 99.96h5.771v5.771h-5.771z" />
      <path class="c" d="M108.125 102.124v1.443M108.847 102.845h-1.443" />
      <path class="a" d="M105.24 105.731h5.771v5.771h-5.771z" />
      <path class="c" d="M108.125 107.895v1.443M108.847 108.616h-1.443" />
      <path class="a" d="M105.24 111.501h5.771v5.771h-5.771z" />
      <path class="c" d="M108.125 113.665v1.443M108.847 114.386h-1.443" />
      <path class="a" d="M105.24 117.272h5.771v5.771h-5.771z" />
      <path class="c" d="M108.125 119.436v1.443M108.847 120.157h-1.443" />
      <path class="a" d="M99.469-3.911h5.771V1.86h-5.771z" />
      <path class="c" d="M102.354-1.747v1.443M103.076-1.026h-1.443" />
      <path class="a" d="M99.469 1.86h5.771v5.771h-5.771z" />
      <path class="c" d="M102.354 4.024v1.443M103.076 4.745h-1.443" />
      <path class="a" d="M99.469 7.63h5.771v5.771h-5.771z" />
      <path class="c" d="M102.354 9.794v1.443M103.076 10.515h-1.443" />
      <path class="a" d="M99.469 13.401h5.771v5.771h-5.771z" />
      <path class="c" d="M102.354 15.565v1.443M103.076 16.286h-1.443" />
      <path class="a" d="M99.469 19.172h5.771v5.771h-5.771z" />
      <path class="c" d="M102.354 21.336v1.443M103.076 22.057h-1.443" />
      <path class="a" d="M99.469 24.942h5.771v5.771h-5.771z" />
      <path class="c" d="M102.354 27.106v1.443M103.076 27.827h-1.443" />
      <path class="a" d="M99.469 30.713h5.771v5.771h-5.771z" />
      <path class="c" d="M102.354 32.877v1.443M103.076 33.598h-1.443" />
      <path class="a" d="M99.469 36.484h5.771v5.771h-5.771z" />
      <path class="c" d="M102.354 38.648v1.443M103.076 39.369h-1.443" />
      <path class="a" d="M99.469 42.254h5.771v5.771h-5.771z" />
      <path class="c" d="M102.354 44.418v1.443M103.076 45.139h-1.443" />
      <path class="a" d="M99.469 48.025h5.771v5.771h-5.771z" />
      <path class="c" d="M102.354 50.189v1.443M103.076 50.91h-1.443" />
      <path class="a" d="M99.469 53.795h5.771v5.771h-5.771z" />
      <path class="c" d="M102.354 55.959v1.443M103.076 56.68h-1.443" />
      <path class="a" d="M99.469 59.566h5.771v5.771h-5.771z" />
      <path class="c" d="M102.354 61.73v1.443M103.076 62.451h-1.443" />
      <path class="a" d="M99.469 65.337h5.771v5.771h-5.771z" />
      <path class="c" d="M102.354 67.501v1.443M103.076 68.222h-1.443" />
      <path class="a" d="M99.469 71.107h5.771v5.771h-5.771z" />
      <path class="c" d="M102.354 73.271v1.443M103.076 73.992h-1.443" />
      <path class="a" d="M99.469 76.878h5.771v5.771h-5.771z" />
      <path class="c" d="M102.354 79.042v1.443M103.076 79.763h-1.443" />
      <path class="a" d="M99.469 82.648h5.771v5.771h-5.771z" />
      <path class="c" d="M102.354 84.812v1.443M103.076 85.533h-1.443" />
      <path class="a" d="M99.469 88.419h5.771v5.771h-5.771z" />
      <path class="c" d="M102.354 90.583v1.443M103.076 91.304h-1.443" />
      <path class="a" d="M99.469 94.19h5.771v5.771h-5.771z" />
      <path class="c" d="M102.354 96.354v1.443M103.076 97.075h-1.443" />
      <path class="a" d="M99.469 99.96h5.771v5.771h-5.771z" />
      <path class="c" d="M102.354 102.124v1.443M103.076 102.845h-1.443" />
      <path class="a" d="M99.469 105.731h5.771v5.771h-5.771z" />
      <path class="c" d="M102.354 107.895v1.443M103.076 108.616h-1.443" />
      <path class="a" d="M99.469 111.501h5.771v5.771h-5.771z" />
      <path class="c" d="M102.354 113.665v1.443M103.076 114.386h-1.443" />
      <path class="a" d="M99.469 117.272h5.771v5.771h-5.771z" />
      <path class="c" d="M102.354 119.436v1.443M103.076 120.157h-1.443" />
      <path class="a" d="M93.699-3.911h5.771V1.86h-5.771z" />
      <path class="c" d="M96.584-1.747v1.443M97.306-1.026h-1.443" />
      <path class="a" d="M93.699 1.86h5.771v5.771h-5.771z" />
      <path class="c" d="M96.584 4.024v1.443M97.306 4.745h-1.443" />
      <path class="a" d="M93.699 7.63h5.771v5.771h-5.771z" />
      <path class="c" d="M96.584 9.794v1.443M97.306 10.515h-1.443" />
      <path class="a" d="M93.699 13.401h5.771v5.771h-5.771z" />
      <path class="c" d="M96.584 15.565v1.443M97.306 16.286h-1.443" />
      <path class="a" d="M93.699 19.172h5.771v5.771h-5.771z" />
      <path class="c" d="M96.584 21.336v1.443M97.306 22.057h-1.443" />
      <path class="a" d="M93.699 24.942h5.771v5.771h-5.771z" />
      <path class="c" d="M96.584 27.106v1.443M97.306 27.827h-1.443" />
      <path class="a" d="M93.699 30.713h5.771v5.771h-5.771z" />
      <path class="c" d="M96.584 32.877v1.443M97.306 33.598h-1.443" />
      <path class="a" d="M93.699 36.484h5.771v5.771h-5.771z" />
      <path class="c" d="M96.584 38.648v1.443M97.306 39.369h-1.443" />
      <path class="a" d="M93.699 42.254h5.771v5.771h-5.771z" />
      <path class="c" d="M96.584 44.418v1.443M97.306 45.139h-1.443" />
      <path class="a" d="M93.699 48.025h5.771v5.771h-5.771z" />
      <path class="c" d="M96.584 50.189v1.443M97.306 50.91h-1.443" />
      <path class="a" d="M93.699 53.795h5.771v5.771h-5.771z" />
      <path class="c" d="M96.584 55.959v1.443M97.306 56.68h-1.443" />
      <path class="a" d="M93.699 59.566h5.771v5.771h-5.771z" />
      <path class="c" d="M96.584 61.73v1.443M97.306 62.451h-1.443" />
      <path class="a" d="M93.699 65.337h5.771v5.771h-5.771z" />
      <path class="c" d="M96.584 67.501v1.443M97.306 68.222h-1.443" />
      <path class="a" d="M93.699 71.107h5.771v5.771h-5.771z" />
      <path class="c" d="M96.584 73.271v1.443M97.306 73.992h-1.443" />
      <path class="a" d="M93.699 76.878h5.771v5.771h-5.771z" />
      <path class="c" d="M96.584 79.042v1.443M97.306 79.763h-1.443" />
      <path class="a" d="M93.699 82.648h5.771v5.771h-5.771z" />
      <path class="c" d="M96.584 84.812v1.443M97.306 85.533h-1.443" />
      <path class="a" d="M93.699 88.419h5.771v5.771h-5.771z" />
      <path class="c" d="M96.584 90.583v1.443M97.306 91.304h-1.443" />
      <path class="a" d="M93.699 94.19h5.771v5.771h-5.771z" />
      <path class="c" d="M96.584 96.354v1.443M97.306 97.075h-1.443" />
      <path class="a" d="M93.699 99.96h5.771v5.771h-5.771z" />
      <path class="c" d="M96.584 102.124v1.443M97.306 102.845h-1.443" />
      <path class="a" d="M93.699 105.731h5.771v5.771h-5.771z" />
      <path class="c" d="M96.584 107.895v1.443M97.306 108.616h-1.443" />
      <path class="a" d="M93.699 111.501h5.771v5.771h-5.771z" />
      <path class="c" d="M96.584 113.665v1.443M97.306 114.386h-1.443" />
      <path class="a" d="M93.699 117.272h5.771v5.771h-5.771z" />
      <path class="c" d="M96.584 119.436v1.443M97.306 120.157h-1.443" />
      <path class="a" d="M87.928-3.911h5.771V1.86h-5.771z" />
      <path class="c" d="M90.813-1.747v1.443M91.535-1.026h-1.443" />
      <path class="a" d="M87.928 1.86h5.771v5.771h-5.771z" />
      <path class="c" d="M90.813 4.024v1.443M91.535 4.745h-1.443" />
      <path class="a" d="M87.928 7.63h5.771v5.771h-5.771z" />
      <path class="c" d="M90.813 9.794v1.443M91.535 10.515h-1.443" />
      <path class="a" d="M87.928 13.401h5.771v5.771h-5.771z" />
      <path class="c" d="M90.813 15.565v1.443M91.535 16.286h-1.443" />
      <path class="a" d="M87.928 19.172h5.771v5.771h-5.771z" />
      <path class="c" d="M90.813 21.336v1.443M91.535 22.057h-1.443" />
      <path class="a" d="M87.928 24.942h5.771v5.771h-5.771z" />
      <path class="c" d="M90.813 27.106v1.443M91.535 27.827h-1.443" />
      <path class="a" d="M87.928 30.713h5.771v5.771h-5.771z" />
      <path class="c" d="M90.813 32.877v1.443M91.535 33.598h-1.443" />
      <path class="a" d="M87.928 36.484h5.771v5.771h-5.771z" />
      <path class="c" d="M90.813 38.648v1.443M91.535 39.369h-1.443" />
      <path class="a" d="M87.928 42.254h5.771v5.771h-5.771z" />
      <path class="c" d="M90.813 44.418v1.443M91.535 45.139h-1.443" />
      <path class="a" d="M87.928 48.025h5.771v5.771h-5.771z" />
      <path class="c" d="M90.813 50.189v1.443M91.535 50.91h-1.443" />
      <path class="a" d="M87.928 53.795h5.771v5.771h-5.771z" />
      <path class="c" d="M90.813 55.959v1.443M91.535 56.68h-1.443" />
      <path class="a" d="M87.928 59.566h5.771v5.771h-5.771z" />
      <path class="c" d="M90.813 61.73v1.443M91.535 62.451h-1.443" />
      <path class="a" d="M87.928 65.337h5.771v5.771h-5.771z" />
      <path class="c" d="M90.813 67.501v1.443M91.535 68.222h-1.443" />
      <path class="a" d="M87.928 71.107h5.771v5.771h-5.771z" />
      <path class="c" d="M90.813 73.271v1.443M91.535 73.992h-1.443" />
      <path class="a" d="M87.928 76.878h5.771v5.771h-5.771z" />
      <path class="c" d="M90.813 79.042v1.443M91.535 79.763h-1.443" />
      <path class="a" d="M87.928 82.648h5.771v5.771h-5.771z" />
      <path class="c" d="M90.813 84.812v1.443M91.535 85.533h-1.443" />
      <path class="a" d="M87.928 88.419h5.771v5.771h-5.771z" />
      <path class="c" d="M90.813 90.583v1.443M91.535 91.304h-1.443" />
      <path class="a" d="M87.928 94.19h5.771v5.771h-5.771z" />
      <path class="c" d="M90.813 96.354v1.443M91.535 97.075h-1.443" />
      <path class="a" d="M87.928 99.96h5.771v5.771h-5.771z" />
      <path class="c" d="M90.813 102.124v1.443M91.535 102.845h-1.443" />
      <path class="a" d="M87.928 105.731h5.771v5.771h-5.771z" />
      <path class="c" d="M90.813 107.895v1.443M91.535 108.616h-1.443" />
      <path class="a" d="M87.928 111.501h5.771v5.771h-5.771z" />
      <path class="c" d="M90.813 113.665v1.443M91.535 114.386h-1.443" />
      <path class="a" d="M87.928 117.272h5.771v5.771h-5.771z" />
      <path class="c" d="M90.813 119.436v1.443M91.535 120.157h-1.443" />
      <path class="a" d="M82.157-3.911h5.771V1.86h-5.771z" />
      <path class="c" d="M85.042-1.747v1.443M85.764-1.026h-1.443" />
      <path class="a" d="M82.157 1.86h5.771v5.771h-5.771z" />
      <path class="c" d="M85.042 4.024v1.443M85.764 4.745h-1.443" />
      <path class="a" d="M82.157 7.63h5.771v5.771h-5.771z" />
      <path class="c" d="M85.042 9.794v1.443M85.764 10.515h-1.443" />
      <path class="a" d="M82.157 13.401h5.771v5.771h-5.771z" />
      <path class="c" d="M85.042 15.565v1.443M85.764 16.286h-1.443" />
      <path class="a" d="M82.157 19.172h5.771v5.771h-5.771z" />
      <path class="c" d="M85.042 21.336v1.443M85.764 22.057h-1.443" />
      <path class="a" d="M82.157 24.942h5.771v5.771h-5.771z" />
      <path class="c" d="M85.042 27.106v1.443M85.764 27.827h-1.443" />
      <path class="a" d="M82.157 30.713h5.771v5.771h-5.771z" />
      <path class="c" d="M85.042 32.877v1.443M85.764 33.598h-1.443" />
      <path class="a" d="M82.157 36.484h5.771v5.771h-5.771z" />
      <path class="c" d="M85.042 38.648v1.443M85.764 39.369h-1.443" />
      <path class="a" d="M82.157 42.254h5.771v5.771h-5.771z" />
      <path class="c" d="M85.042 44.418v1.443M85.764 45.139h-1.443" />
      <path class="a" d="M82.157 48.025h5.771v5.771h-5.771z" />
      <path class="c" d="M85.042 50.189v1.443M85.764 50.91h-1.443" />
      <path class="a" d="M82.157 53.795h5.771v5.771h-5.771z" />
      <path class="c" d="M85.042 55.959v1.443M85.764 56.68h-1.443" />
      <path class="a" d="M82.157 59.566h5.771v5.771h-5.771z" />
      <path class="c" d="M85.042 61.73v1.443M85.764 62.451h-1.443" />
      <path class="a" d="M82.157 65.337h5.771v5.771h-5.771z" />
      <path class="c" d="M85.042 67.501v1.443M85.764 68.222h-1.443" />
      <path class="a" d="M82.157 71.107h5.771v5.771h-5.771z" />
      <path class="c" d="M85.042 73.271v1.443M85.764 73.992h-1.443" />
      <path class="a" d="M82.157 76.878h5.771v5.771h-5.771z" />
      <path class="c" d="M85.042 79.042v1.443M85.764 79.763h-1.443" />
      <path class="a" d="M82.157 82.648h5.771v5.771h-5.771z" />
      <path class="c" d="M85.042 84.812v1.443M85.764 85.533h-1.443" />
      <path class="a" d="M82.157 88.419h5.771v5.771h-5.771z" />
      <path class="c" d="M85.042 90.583v1.443M85.764 91.304h-1.443" />
      <path class="a" d="M82.157 94.19h5.771v5.771h-5.771z" />
      <path class="c" d="M85.042 96.354v1.443M85.764 97.075h-1.443" />
      <path class="a" d="M82.157 99.96h5.771v5.771h-5.771z" />
      <path class="c" d="M85.042 102.124v1.443M85.764 102.845h-1.443" />
      <path class="a" d="M82.157 105.731h5.771v5.771h-5.771z" />
      <path class="c" d="M85.042 107.895v1.443M85.764 108.616h-1.443" />
      <path class="a" d="M82.157 111.501h5.771v5.771h-5.771z" />
      <path class="c" d="M85.042 113.665v1.443M85.764 114.386h-1.443" />
      <path class="a" d="M82.157 117.272h5.771v5.771h-5.771z" />
      <path class="c" d="M85.042 119.436v1.443M85.764 120.157h-1.443" />
      <path class="a" d="M76.387-3.911h5.771V1.86h-5.771z" />
      <path class="c" d="M79.272-1.747v1.443M79.994-1.026h-1.443" />
      <path class="a" d="M76.387 1.86h5.771v5.771h-5.771z" />
      <path class="c" d="M79.272 4.024v1.443M79.994 4.745h-1.443" />
      <path class="a" d="M76.387 7.63h5.771v5.771h-5.771z" />
      <path class="c" d="M79.272 9.794v1.443M79.994 10.515h-1.443" />
      <path class="a" d="M76.387 13.401h5.771v5.771h-5.771z" />
      <path class="c" d="M79.272 15.565v1.443M79.994 16.286h-1.443" />
      <path class="a" d="M76.387 19.172h5.771v5.771h-5.771z" />
      <path class="c" d="M79.272 21.336v1.443M79.994 22.057h-1.443" />
      <path class="a" d="M76.387 24.942h5.771v5.771h-5.771z" />
      <path class="c" d="M79.272 27.106v1.443M79.994 27.827h-1.443" />
      <path class="a" d="M76.387 30.713h5.771v5.771h-5.771z" />
      <path class="c" d="M79.272 32.877v1.443M79.994 33.598h-1.443" />
      <path class="a" d="M76.387 36.484h5.771v5.771h-5.771z" />
      <path class="c" d="M79.272 38.648v1.443M79.994 39.369h-1.443" />
      <path class="a" d="M76.387 42.254h5.771v5.771h-5.771z" />
      <path class="c" d="M79.272 44.418v1.443M79.994 45.139h-1.443" />
      <path class="a" d="M76.387 48.025h5.771v5.771h-5.771z" />
      <path class="c" d="M79.272 50.189v1.443M79.994 50.91h-1.443" />
      <path class="a" d="M76.387 53.795h5.771v5.771h-5.771z" />
      <path class="c" d="M79.272 55.959v1.443M79.994 56.68h-1.443" />
      <path class="a" d="M76.387 59.566h5.771v5.771h-5.771z" />
      <path class="c" d="M79.272 61.73v1.443M79.994 62.451h-1.443" />
      <path class="a" d="M76.387 65.337h5.771v5.771h-5.771z" />
      <path class="c" d="M79.272 67.501v1.443M79.994 68.222h-1.443" />
      <path class="a" d="M76.387 71.107h5.771v5.771h-5.771z" />
      <path class="c" d="M79.272 73.271v1.443M79.994 73.992h-1.443" />
      <path class="a" d="M76.387 76.878h5.771v5.771h-5.771z" />
      <path class="c" d="M79.272 79.042v1.443M79.994 79.763h-1.443" />
      <path class="a" d="M76.387 82.648h5.771v5.771h-5.771z" />
      <path class="c" d="M79.272 84.812v1.443M79.994 85.533h-1.443" />
      <path class="a" d="M76.387 88.419h5.771v5.771h-5.771z" />
      <path class="c" d="M79.272 90.583v1.443M79.994 91.304h-1.443" />
      <path class="a" d="M76.387 94.19h5.771v5.771h-5.771z" />
      <path class="c" d="M79.272 96.354v1.443M79.994 97.075h-1.443" />
      <path class="a" d="M76.387 99.96h5.771v5.771h-5.771z" />
      <path class="c" d="M79.272 102.124v1.443M79.994 102.845h-1.443" />
      <path class="a" d="M76.387 105.731h5.771v5.771h-5.771z" />
      <path class="c" d="M79.272 107.895v1.443M79.994 108.616h-1.443" />
      <path class="a" d="M76.387 111.501h5.771v5.771h-5.771z" />
      <path class="c" d="M79.272 113.665v1.443M79.994 114.386h-1.443" />
      <path class="a" d="M76.387 117.272h5.771v5.771h-5.771z" />
      <path class="c" d="M79.272 119.436v1.443M79.994 120.157h-1.443" />
      <path class="a" d="M70.616-3.911h5.771V1.86h-5.771z" />
      <path class="c" d="M73.501-1.747v1.443M74.223-1.026H72.78" />
      <path class="a" d="M70.616 1.86h5.771v5.771h-5.771z" />
      <path class="c" d="M73.501 4.024v1.443M74.223 4.745H72.78" />
      <path class="a" d="M70.616 7.63h5.771v5.771h-5.771z" />
      <path class="c" d="M73.501 9.794v1.443M74.223 10.515H72.78" />
      <path class="a" d="M70.616 13.401h5.771v5.771h-5.771z" />
      <path class="c" d="M73.501 15.565v1.443M74.223 16.286H72.78" />
      <path class="a" d="M70.616 19.172h5.771v5.771h-5.771z" />
      <path class="c" d="M73.501 21.336v1.443M74.223 22.057H72.78" />
      <path class="a" d="M70.616 24.942h5.771v5.771h-5.771z" />
      <path class="c" d="M73.501 27.106v1.443M74.223 27.827H72.78" />
      <path class="a" d="M70.616 30.713h5.771v5.771h-5.771z" />
      <path class="c" d="M73.501 32.877v1.443M74.223 33.598H72.78" />
      <path class="a" d="M70.616 36.484h5.771v5.771h-5.771z" />
      <path class="c" d="M73.501 38.648v1.443M74.223 39.369H72.78" />
      <path class="a" d="M70.616 42.254h5.771v5.771h-5.771z" />
      <path class="c" d="M73.501 44.418v1.443M74.223 45.139H72.78" />
      <path class="a" d="M70.616 48.025h5.771v5.771h-5.771z" />
      <path class="c" d="M73.501 50.189v1.443M74.223 50.91H72.78" />
      <path class="a" d="M70.616 53.795h5.771v5.771h-5.771z" />
      <path class="c" d="M73.501 55.959v1.443M74.223 56.68H72.78" />
      <path class="a" d="M70.616 59.566h5.771v5.771h-5.771z" />
      <path class="c" d="M73.501 61.73v1.443M74.223 62.451H72.78" />
      <path class="a" d="M70.616 65.337h5.771v5.771h-5.771z" />
      <path class="c" d="M73.501 67.501v1.443M74.223 68.222H72.78" />
      <path class="a" d="M70.616 71.107h5.771v5.771h-5.771z" />
      <path class="c" d="M73.501 73.271v1.443M74.223 73.992H72.78" />
      <path class="a" d="M70.616 76.878h5.771v5.771h-5.771z" />
      <path class="c" d="M73.501 79.042v1.443M74.223 79.763H72.78" />
      <g>
        <path class="a" d="M70.616 82.648h5.771v5.771h-5.771z" />
        <path class="c" d="M73.501 84.812v1.443M74.223 85.533H72.78" />
      </g>
      <g>
        <path class="a" d="M70.616 88.419h5.771v5.771h-5.771z" />
        <path class="c" d="M73.501 90.583v1.443M74.223 91.304H72.78" />
      </g>
      <g>
        <path class="a" d="M70.616 94.19h5.771v5.771h-5.771z" />
        <path class="c" d="M73.501 96.354v1.443M74.223 97.075H72.78" />
      </g>
      <g>
        <path class="a" d="M70.616 99.96h5.771v5.771h-5.771z" />
        <path class="c" d="M73.501 102.124v1.443M74.223 102.845H72.78" />
      </g>
      <g>
        <path class="a" d="M70.616 105.731h5.771v5.771h-5.771z" />
        <path class="c" d="M73.501 107.895v1.443M74.223 108.616H72.78" />
      </g>
      <g>
        <path class="a" d="M70.616 111.501h5.771v5.771h-5.771z" />
        <path class="c" d="M73.501 113.665v1.443M74.223 114.386H72.78" />
      </g>
      <g>
        <path class="a" d="M70.616 117.272h5.771v5.771h-5.771z" />
        <path class="c" d="M73.501 119.436v1.443M74.223 120.157H72.78" />
      </g>
      <g>
        <path class="a" d="M64.845-3.911h5.771V1.86h-5.771z" />
        <path class="c" d="M67.73-1.747v1.443M68.452-1.026h-1.443" />
      </g>
      <g>
        <path class="a" d="M64.845 1.86h5.771v5.771h-5.771z" />
        <path class="c" d="M67.73 4.024v1.443M68.452 4.745h-1.443" />
      </g>
      <g>
        <path class="a" d="M64.845 7.63h5.771v5.771h-5.771z" />
        <path class="c" d="M67.73 9.794v1.443M68.452 10.515h-1.443" />
      </g>
      <g>
        <path class="a" d="M64.845 13.401h5.771v5.771h-5.771z" />
        <path class="c" d="M67.73 15.565v1.443M68.452 16.286h-1.443" />
      </g>
      <g>
        <path class="a" d="M64.845 19.172h5.771v5.771h-5.771z" />
        <path class="c" d="M67.73 21.336v1.443M68.452 22.057h-1.443" />
      </g>
      <g>
        <path class="a" d="M64.845 24.942h5.771v5.771h-5.771z" />
        <path class="c" d="M67.73 27.106v1.443M68.452 27.827h-1.443" />
      </g>
      <g>
        <path class="a" d="M64.845 30.713h5.771v5.771h-5.771z" />
        <path class="c" d="M67.73 32.877v1.443M68.452 33.598h-1.443" />
      </g>
      <g>
        <path class="a" d="M64.845 36.484h5.771v5.771h-5.771z" />
        <path class="c" d="M67.73 38.648v1.443M68.452 39.369h-1.443" />
      </g>
      <g>
        <path class="a" d="M64.845 42.254h5.771v5.771h-5.771z" />
        <path class="c" d="M67.73 44.418v1.443M68.452 45.139h-1.443" />
      </g>
      <g>
        <path class="a" d="M64.845 48.025h5.771v5.771h-5.771z" />
        <path class="c" d="M67.73 50.189v1.443M68.452 50.91h-1.443" />
      </g>
      <g>
        <path class="a" d="M64.845 53.795h5.771v5.771h-5.771z" />
        <path class="c" d="M67.73 55.959v1.443M68.452 56.68h-1.443" />
      </g>
      <g>
        <path class="a" d="M64.845 59.566h5.771v5.771h-5.771z" />
        <path class="c" d="M67.73 61.73v1.443M68.452 62.451h-1.443" />
      </g>
      <g>
        <path class="a" d="M64.845 65.337h5.771v5.771h-5.771z" />
        <path class="c" d="M67.73 67.501v1.443M68.452 68.222h-1.443" />
      </g>
      <g>
        <path class="a" d="M64.845 71.107h5.771v5.771h-5.771z" />
        <path class="c" d="M67.73 73.271v1.443M68.452 73.992h-1.443" />
      </g>
      <g>
        <path class="a" d="M64.845 76.878h5.771v5.771h-5.771z" />
        <path class="c" d="M67.73 79.042v1.443M68.452 79.763h-1.443" />
      </g>
      <g>
        <path class="a" d="M64.845 82.648h5.771v5.771h-5.771z" />
        <path class="c" d="M67.73 84.812v1.443M68.452 85.533h-1.443" />
      </g>
      <g>
        <path class="a" d="M64.845 88.419h5.771v5.771h-5.771z" />
        <path class="c" d="M67.73 90.583v1.443M68.452 91.304h-1.443" />
      </g>
      <g>
        <path class="a" d="M64.845 94.19h5.771v5.771h-5.771z" />
        <path class="c" d="M67.73 96.354v1.443M68.452 97.075h-1.443" />
      </g>
      <g>
        <path class="a" d="M64.845 99.96h5.771v5.771h-5.771z" />
        <path class="c" d="M67.73 102.124v1.443M68.452 102.845h-1.443" />
      </g>
      <g>
        <path class="a" d="M64.845 105.731h5.771v5.771h-5.771z" />
        <path class="c" d="M67.73 107.895v1.443M68.452 108.616h-1.443" />
      </g>
      <g>
        <path class="a" d="M64.845 111.501h5.771v5.771h-5.771z" />
        <path class="c" d="M67.73 113.665v1.443M68.452 114.386h-1.443" />
      </g>
      <g>
        <path class="a" d="M64.845 117.272h5.771v5.771h-5.771z" />
        <path class="c" d="M67.73 119.436v1.443M68.452 120.157h-1.443" />
      </g>
      <g>
        <path class="a" d="M59.075-3.911h5.771V1.86h-5.771z" />
        <path class="c" d="M61.96-1.747v1.443M62.682-1.026h-1.443" />
      </g>
      <g>
        <path class="a" d="M59.075 1.86h5.771v5.771h-5.771z" />
        <path class="c" d="M61.96 4.024v1.443M62.682 4.745h-1.443" />
      </g>
      <g>
        <path class="a" d="M59.075 7.63h5.771v5.771h-5.771z" />
        <path class="c" d="M61.96 9.794v1.443M62.682 10.515h-1.443" />
      </g>
      <g>
        <path class="a" d="M59.075 13.401h5.771v5.771h-5.771z" />
        <path class="c" d="M61.96 15.565v1.443M62.682 16.286h-1.443" />
      </g>
      <g>
        <path class="a" d="M59.075 19.172h5.771v5.771h-5.771z" />
        <path class="c" d="M61.96 21.336v1.443M62.682 22.057h-1.443" />
      </g>
      <g>
        <path class="a" d="M59.075 24.942h5.771v5.771h-5.771z" />
        <path class="c" d="M61.96 27.106v1.443M62.682 27.827h-1.443" />
      </g>
      <g>
        <path class="a" d="M59.075 30.713h5.771v5.771h-5.771z" />
        <path class="c" d="M61.96 32.877v1.443M62.682 33.598h-1.443" />
      </g>
      <g>
        <path class="a" d="M59.075 36.484h5.771v5.771h-5.771z" />
        <path class="c" d="M61.96 38.648v1.443M62.682 39.369h-1.443" />
      </g>
      <g>
        <path class="a" d="M59.075 42.254h5.771v5.771h-5.771z" />
        <path class="c" d="M61.96 44.418v1.443M62.682 45.139h-1.443" />
      </g>
      <g>
        <path class="a" d="M59.075 48.025h5.771v5.771h-5.771z" />
        <path class="c" d="M61.96 50.189v1.443M62.682 50.91h-1.443" />
      </g>
      <g>
        <path class="a" d="M59.075 53.795h5.771v5.771h-5.771z" />
        <path class="c" d="M61.96 55.959v1.443M62.682 56.68h-1.443" />
      </g>
      <g>
        <path class="a" d="M59.075 59.566h5.771v5.771h-5.771z" />
        <path class="c" d="M61.96 61.73v1.443M62.682 62.451h-1.443" />
      </g>
      <g>
        <path class="a" d="M59.075 65.337h5.771v5.771h-5.771z" />
        <path class="c" d="M61.96 67.501v1.443M62.682 68.222h-1.443" />
      </g>
      <g>
        <path class="a" d="M59.075 71.107h5.771v5.771h-5.771z" />
        <path class="c" d="M61.96 73.271v1.443M62.682 73.992h-1.443" />
      </g>
      <g>
        <path class="a" d="M59.075 76.878h5.771v5.771h-5.771z" />
        <path class="c" d="M61.96 79.042v1.443M62.682 79.763h-1.443" />
      </g>
      <g>
        <path class="a" d="M59.075 82.648h5.771v5.771h-5.771z" />
        <path class="c" d="M61.96 84.812v1.443M62.682 85.533h-1.443" />
      </g>
      <g>
        <path class="a" d="M59.075 88.419h5.771v5.771h-5.771z" />
        <path class="c" d="M61.96 90.583v1.443M62.682 91.304h-1.443" />
      </g>
      <g>
        <path class="a" d="M59.075 94.19h5.771v5.771h-5.771z" />
        <path class="c" d="M61.96 96.354v1.443M62.682 97.075h-1.443" />
      </g>
      <g>
        <path class="a" d="M59.075 99.96h5.771v5.771h-5.771z" />
        <path class="c" d="M61.96 102.124v1.443M62.682 102.845h-1.443" />
      </g>
      <g>
        <path class="a" d="M59.075 105.731h5.771v5.771h-5.771z" />
        <path class="c" d="M61.96 107.895v1.443M62.682 108.616h-1.443" />
      </g>
      <g>
        <path class="a" d="M59.075 111.501h5.771v5.771h-5.771z" />
        <path class="c" d="M61.96 113.665v1.443M62.682 114.386h-1.443" />
      </g>
      <g>
        <path class="a" d="M59.075 117.272h5.771v5.771h-5.771z" />
        <path class="c" d="M61.96 119.436v1.443M62.682 120.157h-1.443" />
      </g>
      <g>
        <path class="a" d="M53.304-3.911h5.771V1.86h-5.771z" />
        <path class="c" d="M56.189-1.747v1.443M56.911-1.026h-1.443" />
      </g>
      <g>
        <path class="a" d="M53.304 1.86h5.771v5.771h-5.771z" />
        <path class="c" d="M56.189 4.024v1.443M56.911 4.745h-1.443" />
      </g>
      <g>
        <path class="a" d="M53.304 7.63h5.771v5.771h-5.771z" />
        <path class="c" d="M56.189 9.794v1.443M56.911 10.515h-1.443" />
      </g>
      <g>
        <path class="a" d="M53.304 13.401h5.771v5.771h-5.771z" />
        <path class="c" d="M56.189 15.565v1.443M56.911 16.286h-1.443" />
      </g>
      <g>
        <path class="a" d="M53.304 19.172h5.771v5.771h-5.771z" />
        <path class="c" d="M56.189 21.336v1.443M56.911 22.057h-1.443" />
      </g>
      <g>
        <path class="a" d="M53.304 24.942h5.771v5.771h-5.771z" />
        <path class="c" d="M56.189 27.106v1.443M56.911 27.827h-1.443" />
      </g>
      <g>
        <path class="a" d="M53.304 30.713h5.771v5.771h-5.771z" />
        <path class="c" d="M56.189 32.877v1.443M56.911 33.598h-1.443" />
      </g>
      <g>
        <path class="a" d="M53.304 36.484h5.771v5.771h-5.771z" />
        <path class="c" d="M56.189 38.648v1.443M56.911 39.369h-1.443" />
      </g>
      <g>
        <path class="a" d="M53.304 42.254h5.771v5.771h-5.771z" />
        <path class="c" d="M56.189 44.418v1.443M56.911 45.139h-1.443" />
      </g>
      <g>
        <path class="a" d="M53.304 48.025h5.771v5.771h-5.771z" />
        <path class="c" d="M56.189 50.189v1.443M56.911 50.91h-1.443" />
      </g>
      <g>
        <path class="a" d="M53.304 53.795h5.771v5.771h-5.771z" />
        <path class="c" d="M56.189 55.959v1.443M56.911 56.68h-1.443" />
      </g>
      <g>
        <path class="a" d="M53.304 59.566h5.771v5.771h-5.771z" />
        <path class="c" d="M56.189 61.73v1.443M56.911 62.451h-1.443" />
      </g>
      <g>
        <path class="a" d="M53.304 65.337h5.771v5.771h-5.771z" />
        <path class="c" d="M56.189 67.501v1.443M56.911 68.222h-1.443" />
      </g>
      <g>
        <path class="a" d="M53.304 71.107h5.771v5.771h-5.771z" />
        <path class="c" d="M56.189 73.271v1.443M56.911 73.992h-1.443" />
      </g>
      <g>
        <path class="a" d="M53.304 76.878h5.771v5.771h-5.771z" />
        <path class="c" d="M56.189 79.042v1.443M56.911 79.763h-1.443" />
      </g>
      <g>
        <path class="a" d="M53.304 82.648h5.771v5.771h-5.771z" />
        <path class="c" d="M56.189 84.812v1.443M56.911 85.533h-1.443" />
      </g>
      <g>
        <path class="a" d="M53.304 88.419h5.771v5.771h-5.771z" />
        <path class="c" d="M56.189 90.583v1.443M56.911 91.304h-1.443" />
      </g>
      <g>
        <path class="a" d="M53.304 94.19h5.771v5.771h-5.771z" />
        <path class="c" d="M56.189 96.354v1.443M56.911 97.075h-1.443" />
      </g>
      <g>
        <path class="a" d="M53.304 99.96h5.771v5.771h-5.771z" />
        <path class="c" d="M56.189 102.124v1.443M56.911 102.845h-1.443" />
      </g>
      <g>
        <path class="a" d="M53.304 105.731h5.771v5.771h-5.771z" />
        <path class="c" d="M56.189 107.895v1.443M56.911 108.616h-1.443" />
      </g>
      <g>
        <path class="a" d="M53.304 111.501h5.771v5.771h-5.771z" />
        <path class="c" d="M56.189 113.665v1.443M56.911 114.386h-1.443" />
      </g>
      <g>
        <path class="a" d="M53.304 117.272h5.771v5.771h-5.771z" />
        <path class="c" d="M56.189 119.436v1.443M56.911 120.157h-1.443" />
      </g>
      <g>
        <path class="a" d="M47.534-3.911h5.771V1.86h-5.771z" />
        <path class="c" d="M50.419-1.747v1.443M51.141-1.026h-1.443" />
      </g>
      <g>
        <path class="a" d="M47.534 1.86h5.771v5.771h-5.771z" />
        <path class="c" d="M50.419 4.024v1.443M51.141 4.745h-1.443" />
      </g>
      <g>
        <path class="a" d="M47.534 7.63h5.771v5.771h-5.771z" />
        <path class="c" d="M50.419 9.794v1.443M51.141 10.515h-1.443" />
      </g>
      <g>
        <path class="a" d="M47.534 13.401h5.771v5.771h-5.771z" />
        <path class="c" d="M50.419 15.565v1.443M51.141 16.286h-1.443" />
      </g>
      <g>
        <path class="a" d="M47.534 19.172h5.771v5.771h-5.771z" />
        <path class="c" d="M50.419 21.336v1.443M51.141 22.057h-1.443" />
      </g>
      <g>
        <path class="a" d="M47.534 24.942h5.771v5.771h-5.771z" />
        <path class="c" d="M50.419 27.106v1.443M51.141 27.827h-1.443" />
      </g>
      <g>
        <path class="a" d="M47.534 30.713h5.771v5.771h-5.771z" />
        <path class="c" d="M50.419 32.877v1.443M51.141 33.598h-1.443" />
      </g>
      <g>
        <path class="a" d="M47.534 36.484h5.771v5.771h-5.771z" />
        <path class="c" d="M50.419 38.648v1.443M51.141 39.369h-1.443" />
      </g>
      <g>
        <path class="a" d="M47.534 42.254h5.771v5.771h-5.771z" />
        <path class="c" d="M50.419 44.418v1.443M51.141 45.139h-1.443" />
      </g>
      <g>
        <path class="a" d="M47.534 48.025h5.771v5.771h-5.771z" />
        <path class="c" d="M50.419 50.189v1.443M51.141 50.91h-1.443" />
      </g>
      <g>
        <path class="a" d="M47.534 53.795h5.771v5.771h-5.771z" />
        <path class="c" d="M50.419 55.959v1.443M51.141 56.68h-1.443" />
      </g>
      <g>
        <path class="a" d="M47.534 59.566h5.771v5.771h-5.771z" />
        <path class="c" d="M50.419 61.73v1.443M51.141 62.451h-1.443" />
      </g>
      <g>
        <path class="a" d="M47.534 65.337h5.771v5.771h-5.771z" />
        <path class="c" d="M50.419 67.501v1.443M51.141 68.222h-1.443" />
      </g>
      <g>
        <path class="a" d="M47.534 71.107h5.771v5.771h-5.771z" />
        <path class="c" d="M50.419 73.271v1.443M51.141 73.992h-1.443" />
      </g>
      <g>
        <path class="a" d="M47.534 76.878h5.771v5.771h-5.771z" />
        <path class="c" d="M50.419 79.042v1.443M51.141 79.763h-1.443" />
      </g>
      <g>
        <path class="a" d="M47.534 82.648h5.771v5.771h-5.771z" />
        <path class="c" d="M50.419 84.812v1.443M51.141 85.533h-1.443" />
      </g>
      <g>
        <path class="a" d="M47.534 88.419h5.771v5.771h-5.771z" />
        <path class="c" d="M50.419 90.583v1.443M51.141 91.304h-1.443" />
      </g>
      <g>
        <path class="a" d="M47.534 94.19h5.771v5.771h-5.771z" />
        <path class="c" d="M50.419 96.354v1.443M51.141 97.075h-1.443" />
      </g>
      <g>
        <path class="a" d="M47.534 99.96h5.771v5.771h-5.771z" />
        <path class="c" d="M50.419 102.124v1.443M51.141 102.845h-1.443" />
      </g>
      <g>
        <path class="a" d="M47.534 105.731h5.771v5.771h-5.771z" />
        <path class="c" d="M50.419 107.895v1.443M51.141 108.616h-1.443" />
      </g>
      <g>
        <path class="a" d="M47.534 111.501h5.771v5.771h-5.771z" />
        <path class="c" d="M50.419 113.665v1.443M51.141 114.386h-1.443" />
      </g>
      <g>
        <path class="a" d="M47.534 117.272h5.771v5.771h-5.771z" />
        <path class="c" d="M50.419 119.436v1.443M51.141 120.157h-1.443" />
      </g>
      <g>
        <path class="a" d="M41.763-3.911h5.771V1.86h-5.771z" />
        <path class="c" d="M44.648-1.747v1.443M45.37-1.026h-1.443" />
      </g>
      <g>
        <path class="a" d="M41.763 1.86h5.771v5.771h-5.771z" />
        <path class="c" d="M44.648 4.024v1.443M45.37 4.745h-1.443" />
      </g>
      <g>
        <path class="a" d="M41.763 7.63h5.771v5.771h-5.771z" />
        <path class="c" d="M44.648 9.794v1.443M45.37 10.515h-1.443" />
      </g>
      <g>
        <path class="a" d="M41.763 13.401h5.771v5.771h-5.771z" />
        <path class="c" d="M44.648 15.565v1.443M45.37 16.286h-1.443" />
      </g>
      <g>
        <path class="a" d="M41.763 19.172h5.771v5.771h-5.771z" />
        <path class="c" d="M44.648 21.336v1.443M45.37 22.057h-1.443" />
      </g>
      <g>
        <path class="a" d="M41.763 24.942h5.771v5.771h-5.771z" />
        <path class="c" d="M44.648 27.106v1.443M45.37 27.827h-1.443" />
      </g>
      <g>
        <path class="a" d="M41.763 30.713h5.771v5.771h-5.771z" />
        <path class="c" d="M44.648 32.877v1.443M45.37 33.598h-1.443" />
      </g>
      <g>
        <path class="a" d="M41.763 36.484h5.771v5.771h-5.771z" />
        <path class="c" d="M44.648 38.648v1.443M45.37 39.369h-1.443" />
      </g>
      <g>
        <path class="a" d="M41.763 42.254h5.771v5.771h-5.771z" />
        <path class="c" d="M44.648 44.418v1.443M45.37 45.139h-1.443" />
      </g>
      <g>
        <path class="a" d="M41.763 48.025h5.771v5.771h-5.771z" />
        <path class="c" d="M44.648 50.189v1.443M45.37 50.91h-1.443" />
      </g>
      <g>
        <path class="a" d="M41.763 53.795h5.771v5.771h-5.771z" />
        <path class="c" d="M44.648 55.959v1.443M45.37 56.68h-1.443" />
      </g>
      <g>
        <path class="a" d="M41.763 59.566h5.771v5.771h-5.771z" />
        <path class="c" d="M44.648 61.73v1.443M45.37 62.451h-1.443" />
      </g>
      <g>
        <path class="a" d="M41.763 65.337h5.771v5.771h-5.771z" />
        <path class="c" d="M44.648 67.501v1.443M45.37 68.222h-1.443" />
      </g>
      <g>
        <path class="a" d="M41.763 71.107h5.771v5.771h-5.771z" />
        <path class="c" d="M44.648 73.271v1.443M45.37 73.992h-1.443" />
      </g>
      <g>
        <path class="a" d="M41.763 76.878h5.771v5.771h-5.771z" />
        <path class="c" d="M44.648 79.042v1.443M45.37 79.763h-1.443" />
      </g>
      <g>
        <path class="a" d="M41.763 82.648h5.771v5.771h-5.771z" />
        <path class="c" d="M44.648 84.812v1.443M45.37 85.533h-1.443" />
      </g>
      <g>
        <path class="a" d="M41.763 88.419h5.771v5.771h-5.771z" />
        <path class="c" d="M44.648 90.583v1.443M45.37 91.304h-1.443" />
      </g>
      <g>
        <path class="a" d="M41.763 94.19h5.771v5.771h-5.771z" />
        <path class="c" d="M44.648 96.354v1.443M45.37 97.075h-1.443" />
      </g>
      <g>
        <path class="a" d="M41.763 99.96h5.771v5.771h-5.771z" />
        <path class="c" d="M44.648 102.124v1.443M45.37 102.845h-1.443" />
      </g>
      <g>
        <path class="a" d="M41.763 105.731h5.771v5.771h-5.771z" />
        <path class="c" d="M44.648 107.895v1.443M45.37 108.616h-1.443" />
      </g>
      <g>
        <path class="a" d="M41.763 111.501h5.771v5.771h-5.771z" />
        <path class="c" d="M44.648 113.665v1.443M45.37 114.386h-1.443" />
      </g>
      <g>
        <path class="a" d="M41.763 117.272h5.771v5.771h-5.771z" />
        <path class="c" d="M44.648 119.436v1.443M45.37 120.157h-1.443" />
      </g>
      <g>
        <path class="a" d="M35.992-3.911h5.771V1.86h-5.771z" />
        <path class="c" d="M38.877-1.747v1.443M39.599-1.026h-1.443" />
      </g>
      <g>
        <path class="a" d="M35.992 1.86h5.771v5.771h-5.771z" />
        <path class="c" d="M38.877 4.024v1.443M39.599 4.745h-1.443" />
      </g>
      <g>
        <path class="a" d="M35.992 7.63h5.771v5.771h-5.771z" />
        <path class="c" d="M38.877 9.794v1.443M39.599 10.515h-1.443" />
      </g>
      <g>
        <path class="a" d="M35.992 13.401h5.771v5.771h-5.771z" />
        <path class="c" d="M38.877 15.565v1.443M39.599 16.286h-1.443" />
      </g>
      <g>
        <path class="a" d="M35.992 19.172h5.771v5.771h-5.771z" />
        <path class="c" d="M38.877 21.336v1.443M39.599 22.057h-1.443" />
      </g>
      <g>
        <path class="a" d="M35.992 24.942h5.771v5.771h-5.771z" />
        <path class="c" d="M38.877 27.106v1.443M39.599 27.827h-1.443" />
      </g>
      <g>
        <path class="a" d="M35.992 30.713h5.771v5.771h-5.771z" />
        <path class="c" d="M38.877 32.877v1.443M39.599 33.598h-1.443" />
      </g>
      <g>
        <path class="a" d="M35.992 36.484h5.771v5.771h-5.771z" />
        <path class="c" d="M38.877 38.648v1.443M39.599 39.369h-1.443" />
      </g>
      <g>
        <path class="a" d="M35.992 42.254h5.771v5.771h-5.771z" />
        <path class="c" d="M38.877 44.418v1.443M39.599 45.139h-1.443" />
      </g>
      <g>
        <path class="a" d="M35.992 48.025h5.771v5.771h-5.771z" />
        <path class="c" d="M38.877 50.189v1.443M39.599 50.91h-1.443" />
      </g>
      <g>
        <path class="a" d="M35.992 53.795h5.771v5.771h-5.771z" />
        <path class="c" d="M38.877 55.959v1.443M39.599 56.68h-1.443" />
      </g>
      <g>
        <path class="a" d="M35.992 59.566h5.771v5.771h-5.771z" />
        <path class="c" d="M38.877 61.73v1.443M39.599 62.451h-1.443" />
      </g>
      <g>
        <path class="a" d="M35.992 65.337h5.771v5.771h-5.771z" />
        <path class="c" d="M38.877 67.501v1.443M39.599 68.222h-1.443" />
      </g>
      <g>
        <path class="a" d="M35.992 71.107h5.771v5.771h-5.771z" />
        <path class="c" d="M38.877 73.271v1.443M39.599 73.992h-1.443" />
      </g>
      <g>
        <path class="a" d="M35.992 76.878h5.771v5.771h-5.771z" />
        <path class="c" d="M38.877 79.042v1.443M39.599 79.763h-1.443" />
      </g>
      <g>
        <path class="a" d="M35.992 82.648h5.771v5.771h-5.771z" />
        <path class="c" d="M38.877 84.812v1.443M39.599 85.533h-1.443" />
      </g>
      <g>
        <path class="a" d="M35.992 88.419h5.771v5.771h-5.771z" />
        <path class="c" d="M38.877 90.583v1.443M39.599 91.304h-1.443" />
      </g>
      <g>
        <path class="a" d="M35.992 94.19h5.771v5.771h-5.771z" />
        <path class="c" d="M38.877 96.354v1.443M39.599 97.075h-1.443" />
      </g>
      <g>
        <path class="a" d="M35.992 99.96h5.771v5.771h-5.771z" />
        <path class="c" d="M38.877 102.124v1.443M39.599 102.845h-1.443" />
      </g>
      <g>
        <path class="a" d="M35.992 105.731h5.771v5.771h-5.771z" />
        <path class="c" d="M38.877 107.895v1.443M39.599 108.616h-1.443" />
      </g>
      <g>
        <path class="a" d="M35.992 111.501h5.771v5.771h-5.771z" />
        <path class="c" d="M38.877 113.665v1.443M39.599 114.386h-1.443" />
      </g>
      <g>
        <path class="a" d="M35.992 117.272h5.771v5.771h-5.771z" />
        <path class="c" d="M38.877 119.436v1.443M39.599 120.157h-1.443" />
      </g>
      <g>
        <path class="a" d="M30.222-3.911h5.771V1.86h-5.771z" />
        <path class="c" d="M33.107-1.747v1.443M33.829-1.026h-1.443" />
      </g>
      <g>
        <path class="a" d="M30.222 1.86h5.771v5.771h-5.771z" />
        <path class="c" d="M33.107 4.024v1.443M33.829 4.745h-1.443" />
      </g>
      <g>
        <path class="a" d="M30.222 7.63h5.771v5.771h-5.771z" />
        <path class="c" d="M33.107 9.794v1.443M33.829 10.515h-1.443" />
      </g>
      <g>
        <path class="a" d="M30.222 13.401h5.771v5.771h-5.771z" />
        <path class="c" d="M33.107 15.565v1.443M33.829 16.286h-1.443" />
      </g>
      <g>
        <path class="a" d="M30.222 19.172h5.771v5.771h-5.771z" />
        <path class="c" d="M33.107 21.336v1.443M33.829 22.057h-1.443" />
      </g>
      <g>
        <path class="a" d="M30.222 24.942h5.771v5.771h-5.771z" />
        <path class="c" d="M33.107 27.106v1.443M33.829 27.827h-1.443" />
      </g>
      <g>
        <path class="a" d="M30.222 30.713h5.771v5.771h-5.771z" />
        <path class="c" d="M33.107 32.877v1.443M33.829 33.598h-1.443" />
      </g>
      <g>
        <path class="a" d="M30.222 36.484h5.771v5.771h-5.771z" />
        <path class="c" d="M33.107 38.648v1.443M33.829 39.369h-1.443" />
      </g>
      <g>
        <path class="a" d="M30.222 42.254h5.771v5.771h-5.771z" />
        <path class="c" d="M33.107 44.418v1.443M33.829 45.139h-1.443" />
      </g>
      <g>
        <path class="a" d="M30.222 48.025h5.771v5.771h-5.771z" />
        <path class="c" d="M33.107 50.189v1.443M33.829 50.91h-1.443" />
      </g>
      <g>
        <path class="a" d="M30.222 53.795h5.771v5.771h-5.771z" />
        <path class="c" d="M33.107 55.959v1.443M33.829 56.68h-1.443" />
      </g>
      <g>
        <path class="a" d="M30.222 59.566h5.771v5.771h-5.771z" />
        <path class="c" d="M33.107 61.73v1.443M33.829 62.451h-1.443" />
      </g>
      <g>
        <path class="a" d="M30.222 65.337h5.771v5.771h-5.771z" />
        <path class="c" d="M33.107 67.501v1.443M33.829 68.222h-1.443" />
      </g>
      <g>
        <path class="a" d="M30.222 71.107h5.771v5.771h-5.771z" />
        <path class="c" d="M33.107 73.271v1.443M33.829 73.992h-1.443" />
      </g>
      <g>
        <path class="a" d="M30.222 76.878h5.771v5.771h-5.771z" />
        <path class="c" d="M33.107 79.042v1.443M33.829 79.763h-1.443" />
      </g>
      <g>
        <path class="a" d="M30.222 82.648h5.771v5.771h-5.771z" />
        <path class="c" d="M33.107 84.812v1.443M33.829 85.533h-1.443" />
      </g>
      <g>
        <path class="a" d="M30.222 88.419h5.771v5.771h-5.771z" />
        <path class="c" d="M33.107 90.583v1.443M33.829 91.304h-1.443" />
      </g>
      <g>
        <path class="a" d="M30.222 94.19h5.771v5.771h-5.771z" />
        <path class="c" d="M33.107 96.354v1.443M33.829 97.075h-1.443" />
      </g>
      <g>
        <path class="a" d="M30.222 99.96h5.771v5.771h-5.771z" />
        <path class="c" d="M33.107 102.124v1.443M33.829 102.845h-1.443" />
      </g>
      <g>
        <path class="a" d="M30.222 105.731h5.771v5.771h-5.771z" />
        <path class="c" d="M33.107 107.895v1.443M33.829 108.616h-1.443" />
      </g>
      <g>
        <path class="a" d="M30.222 111.501h5.771v5.771h-5.771z" />
        <path class="c" d="M33.107 113.665v1.443M33.829 114.386h-1.443" />
      </g>
      <g>
        <path class="a" d="M30.222 117.272h5.771v5.771h-5.771z" />
        <path class="c" d="M33.107 119.436v1.443M33.829 120.157h-1.443" />
      </g>
      <g>
        <path class="a" d="M24.451-3.911h5.771V1.86h-5.771z" />
        <path class="c" d="M27.336-1.747v1.443M28.058-1.026h-1.443" />
      </g>
      <g>
        <path class="a" d="M24.451 1.86h5.771v5.771h-5.771z" />
        <path class="c" d="M27.336 4.024v1.443M28.058 4.745h-1.443" />
      </g>
      <g>
        <path class="a" d="M24.451 7.63h5.771v5.771h-5.771z" />
        <path class="c" d="M27.336 9.794v1.443M28.058 10.515h-1.443" />
      </g>
      <g>
        <path class="a" d="M24.451 13.401h5.771v5.771h-5.771z" />
        <path class="c" d="M27.336 15.565v1.443M28.058 16.286h-1.443" />
      </g>
      <g>
        <path class="a" d="M24.451 19.172h5.771v5.771h-5.771z" />
        <path class="c" d="M27.336 21.336v1.443M28.058 22.057h-1.443" />
      </g>
      <g>
        <path class="a" d="M24.451 24.942h5.771v5.771h-5.771z" />
        <path class="c" d="M27.336 27.106v1.443M28.058 27.827h-1.443" />
      </g>
      <g>
        <path class="a" d="M24.451 30.713h5.771v5.771h-5.771z" />
        <path class="c" d="M27.336 32.877v1.443M28.058 33.598h-1.443" />
      </g>
      <g>
        <path class="a" d="M24.451 36.484h5.771v5.771h-5.771z" />
        <path class="c" d="M27.336 38.648v1.443M28.058 39.369h-1.443" />
      </g>
      <g>
        <path class="a" d="M24.451 42.254h5.771v5.771h-5.771z" />
        <path class="c" d="M27.336 44.418v1.443M28.058 45.139h-1.443" />
      </g>
      <g>
        <path class="a" d="M24.451 48.025h5.771v5.771h-5.771z" />
        <path class="c" d="M27.336 50.189v1.443M28.058 50.91h-1.443" />
      </g>
      <g>
        <path class="a" d="M24.451 53.795h5.771v5.771h-5.771z" />
        <path class="c" d="M27.336 55.959v1.443M28.058 56.68h-1.443" />
      </g>
      <g>
        <path class="a" d="M24.451 59.566h5.771v5.771h-5.771z" />
        <path class="c" d="M27.336 61.73v1.443M28.058 62.451h-1.443" />
      </g>
      <g>
        <path class="a" d="M24.451 65.337h5.771v5.771h-5.771z" />
        <path class="c" d="M27.336 67.501v1.443M28.058 68.222h-1.443" />
      </g>
      <g>
        <path class="a" d="M24.451 71.107h5.771v5.771h-5.771z" />
        <path class="c" d="M27.336 73.271v1.443M28.058 73.992h-1.443" />
      </g>
      <g>
        <path class="a" d="M24.451 76.878h5.771v5.771h-5.771z" />
        <path class="c" d="M27.336 79.042v1.443M28.058 79.763h-1.443" />
      </g>
      <g>
        <path class="a" d="M24.451 82.648h5.771v5.771h-5.771z" />
        <path class="c" d="M27.336 84.812v1.443M28.058 85.533h-1.443" />
      </g>
      <g>
        <path class="a" d="M24.451 88.419h5.771v5.771h-5.771z" />
        <path class="c" d="M27.336 90.583v1.443M28.058 91.304h-1.443" />
      </g>
      <g>
        <path class="a" d="M24.451 94.19h5.771v5.771h-5.771z" />
        <path class="c" d="M27.336 96.354v1.443M28.058 97.075h-1.443" />
      </g>
      <g>
        <path class="a" d="M24.451 99.96h5.771v5.771h-5.771z" />
        <path class="c" d="M27.336 102.124v1.443M28.058 102.845h-1.443" />
      </g>
      <g>
        <path class="a" d="M24.451 105.731h5.771v5.771h-5.771z" />
        <path class="c" d="M27.336 107.895v1.443M28.058 108.616h-1.443" />
      </g>
      <g>
        <path class="a" d="M24.451 111.501h5.771v5.771h-5.771z" />
        <path class="c" d="M27.336 113.665v1.443M28.058 114.386h-1.443" />
      </g>
      <g>
        <path class="a" d="M24.451 117.272h5.771v5.771h-5.771z" />
        <path class="c" d="M27.336 119.436v1.443M28.058 120.157h-1.443" />
      </g>
      <g>
        <path class="a" d="M18.681-3.911h5.771V1.86h-5.771z" />
        <path class="c" d="M21.566-1.747v1.443M22.288-1.026h-1.443" />
      </g>
      <g>
        <path class="a" d="M18.681 1.86h5.771v5.771h-5.771z" />
        <path class="c" d="M21.566 4.024v1.443M22.288 4.745h-1.443" />
      </g>
      <g>
        <path class="a" d="M18.681 7.63h5.771v5.771h-5.771z" />
        <path class="c" d="M21.566 9.794v1.443M22.288 10.515h-1.443" />
      </g>
      <g>
        <path class="a" d="M18.681 13.401h5.771v5.771h-5.771z" />
        <path class="c" d="M21.566 15.565v1.443M22.288 16.286h-1.443" />
      </g>
      <g>
        <path class="a" d="M18.681 19.172h5.771v5.771h-5.771z" />
        <path class="c" d="M21.566 21.336v1.443M22.288 22.057h-1.443" />
      </g>
      <g>
        <path class="a" d="M18.681 24.942h5.771v5.771h-5.771z" />
        <path class="c" d="M21.566 27.106v1.443M22.288 27.827h-1.443" />
      </g>
      <g>
        <path class="a" d="M18.681 30.713h5.771v5.771h-5.771z" />
        <path class="c" d="M21.566 32.877v1.443M22.288 33.598h-1.443" />
      </g>
      <g>
        <path class="a" d="M18.681 36.484h5.771v5.771h-5.771z" />
        <path class="c" d="M21.566 38.648v1.443M22.288 39.369h-1.443" />
      </g>
      <g>
        <path class="a" d="M18.681 42.254h5.771v5.771h-5.771z" />
        <path class="c" d="M21.566 44.418v1.443M22.288 45.139h-1.443" />
      </g>
      <g>
        <path class="a" d="M18.681 48.025h5.771v5.771h-5.771z" />
        <path class="c" d="M21.566 50.189v1.443M22.288 50.91h-1.443" />
      </g>
      <g>
        <path class="a" d="M18.681 53.795h5.771v5.771h-5.771z" />
        <path class="c" d="M21.566 55.959v1.443M22.288 56.68h-1.443" />
      </g>
      <g>
        <path class="a" d="M18.681 59.566h5.771v5.771h-5.771z" />
        <path class="c" d="M21.566 61.73v1.443M22.288 62.451h-1.443" />
      </g>
      <g>
        <path class="a" d="M18.681 65.337h5.771v5.771h-5.771z" />
        <path class="c" d="M21.566 67.501v1.443M22.288 68.222h-1.443" />
      </g>
      <g>
        <path class="a" d="M18.681 71.107h5.771v5.771h-5.771z" />
        <path class="c" d="M21.566 73.271v1.443M22.288 73.992h-1.443" />
      </g>
      <g>
        <path class="a" d="M18.681 76.878h5.771v5.771h-5.771z" />
        <path class="c" d="M21.566 79.042v1.443M22.288 79.763h-1.443" />
      </g>
      <g>
        <path class="a" d="M18.681 82.648h5.771v5.771h-5.771z" />
        <path class="c" d="M21.566 84.812v1.443M22.288 85.533h-1.443" />
      </g>
      <g>
        <path class="a" d="M18.681 88.419h5.771v5.771h-5.771z" />
        <path class="c" d="M21.566 90.583v1.443M22.288 91.304h-1.443" />
      </g>
      <g>
        <path class="a" d="M18.681 94.19h5.771v5.771h-5.771z" />
        <path class="c" d="M21.566 96.354v1.443M22.288 97.075h-1.443" />
      </g>
      <g>
        <path class="a" d="M18.681 99.96h5.771v5.771h-5.771z" />
        <path class="c" d="M21.566 102.124v1.443M22.288 102.845h-1.443" />
      </g>
      <g>
        <path class="a" d="M18.681 105.731h5.771v5.771h-5.771z" />
        <path class="c" d="M21.566 107.895v1.443M22.288 108.616h-1.443" />
      </g>
      <g>
        <path class="a" d="M18.681 111.501h5.771v5.771h-5.771z" />
        <path class="c" d="M21.566 113.665v1.443M22.288 114.386h-1.443" />
      </g>
      <g>
        <path class="a" d="M18.681 117.272h5.771v5.771h-5.771z" />
        <path class="c" d="M21.566 119.436v1.443M22.288 120.157h-1.443" />
      </g>
      <g>
        <path class="a" d="M12.91-3.911h5.771V1.86H12.91z" />
        <path class="c" d="M15.795-1.747v1.443M16.517-1.026h-1.443" />
      </g>
      <g>
        <path class="a" d="M12.91 1.86h5.771v5.771H12.91z" />
        <path class="c" d="M15.795 4.024v1.443M16.517 4.745h-1.443" />
      </g>
      <g>
        <path class="a" d="M12.91 7.63h5.771v5.771H12.91z" />
        <path class="c" d="M15.795 9.794v1.443M16.517 10.515h-1.443" />
      </g>
      <g>
        <path class="a" d="M12.91 13.401h5.771v5.771H12.91z" />
        <path class="c" d="M15.795 15.565v1.443M16.517 16.286h-1.443" />
      </g>
      <g>
        <path class="a" d="M12.91 19.172h5.771v5.771H12.91z" />
        <path class="c" d="M15.795 21.336v1.443M16.517 22.057h-1.443" />
      </g>
      <g>
        <path class="a" d="M12.91 24.942h5.771v5.771H12.91z" />
        <path class="c" d="M15.795 27.106v1.443M16.517 27.827h-1.443" />
      </g>
      <g>
        <path class="a" d="M12.91 30.713h5.771v5.771H12.91z" />
        <path class="c" d="M15.795 32.877v1.443M16.517 33.598h-1.443" />
      </g>
      <g>
        <path class="a" d="M12.91 36.484h5.771v5.771H12.91z" />
        <path class="c" d="M15.795 38.648v1.443M16.517 39.369h-1.443" />
      </g>
      <g>
        <path class="a" d="M12.91 42.254h5.771v5.771H12.91z" />
        <path class="c" d="M15.795 44.418v1.443M16.517 45.139h-1.443" />
      </g>
      <g>
        <path class="a" d="M12.91 48.025h5.771v5.771H12.91z" />
        <path class="c" d="M15.795 50.189v1.443M16.517 50.91h-1.443" />
      </g>
      <g>
        <path class="a" d="M12.91 53.795h5.771v5.771H12.91z" />
        <path class="c" d="M15.795 55.959v1.443M16.517 56.68h-1.443" />
      </g>
      <g>
        <path class="a" d="M12.91 59.566h5.771v5.771H12.91z" />
        <path class="c" d="M15.795 61.73v1.443M16.517 62.451h-1.443" />
      </g>
      <g>
        <path class="a" d="M12.91 65.337h5.771v5.771H12.91z" />
        <path class="c" d="M15.795 67.501v1.443M16.517 68.222h-1.443" />
      </g>
      <g>
        <path class="a" d="M12.91 71.107h5.771v5.771H12.91z" />
        <path class="c" d="M15.795 73.271v1.443M16.517 73.992h-1.443" />
      </g>
      <g>
        <path class="a" d="M12.91 76.878h5.771v5.771H12.91z" />
        <path class="c" d="M15.795 79.042v1.443M16.517 79.763h-1.443" />
      </g>
      <g>
        <path class="a" d="M12.91 82.648h5.771v5.771H12.91z" />
        <path class="c" d="M15.795 84.812v1.443M16.517 85.533h-1.443" />
      </g>
      <g>
        <path class="a" d="M12.91 88.419h5.771v5.771H12.91z" />
        <path class="c" d="M15.795 90.583v1.443M16.517 91.304h-1.443" />
      </g>
      <g>
        <path class="a" d="M12.91 94.19h5.771v5.771H12.91z" />
        <path class="c" d="M15.795 96.354v1.443M16.517 97.075h-1.443" />
      </g>
      <g>
        <path class="a" d="M12.91 99.96h5.771v5.771H12.91z" />
        <path class="c" d="M15.795 102.124v1.443M16.517 102.845h-1.443" />
      </g>
      <g>
        <path class="a" d="M12.91 105.731h5.771v5.771H12.91z" />
        <path class="c" d="M15.795 107.895v1.443M16.517 108.616h-1.443" />
      </g>
      <g>
        <path class="a" d="M12.91 111.501h5.771v5.771H12.91z" />
        <path class="c" d="M15.795 113.665v1.443M16.517 114.386h-1.443" />
      </g>
      <g>
        <path class="a" d="M12.91 117.272h5.771v5.771H12.91z" />
        <path class="c" d="M15.795 119.436v1.443M16.517 120.157h-1.443" />
      </g>
      <g>
        <path class="a" d="M7.139-3.911h5.771V1.86H7.139z" />
        <path class="c" d="M10.024-1.747v1.443M10.746-1.026H9.303" />
      </g>
      <g>
        <path class="a" d="M7.139 1.86h5.771v5.771H7.139z" />
        <path class="c" d="M10.024 4.024v1.443M10.746 4.745H9.303" />
      </g>
      <g>
        <path class="a" d="M7.139 7.63h5.771v5.771H7.139z" />
        <path class="c" d="M10.024 9.794v1.443M10.746 10.515H9.303" />
      </g>
      <g>
        <path class="a" d="M7.139 13.401h5.771v5.771H7.139z" />
        <path class="c" d="M10.024 15.565v1.443M10.746 16.286H9.303" />
      </g>
      <g>
        <path class="a" d="M7.139 19.172h5.771v5.771H7.139z" />
        <path class="c" d="M10.024 21.336v1.443M10.746 22.057H9.303" />
      </g>
      <g>
        <path class="a" d="M7.139 24.942h5.771v5.771H7.139z" />
        <path class="c" d="M10.024 27.106v1.443M10.746 27.827H9.303" />
      </g>
      <g>
        <path class="a" d="M7.139 30.713h5.771v5.771H7.139z" />
        <path class="c" d="M10.024 32.877v1.443M10.746 33.598H9.303" />
      </g>
      <g>
        <path class="a" d="M7.139 36.484h5.771v5.771H7.139z" />
        <path class="c" d="M10.024 38.648v1.443M10.746 39.369H9.303" />
      </g>
      <g>
        <path class="a" d="M7.139 42.254h5.771v5.771H7.139z" />
        <path class="c" d="M10.024 44.418v1.443M10.746 45.139H9.303" />
      </g>
      <g>
        <path class="a" d="M7.139 48.025h5.771v5.771H7.139z" />
        <path class="c" d="M10.024 50.189v1.443M10.746 50.91H9.303" />
      </g>
      <g>
        <path class="a" d="M7.139 53.795h5.771v5.771H7.139z" />
        <path class="c" d="M10.024 55.959v1.443M10.746 56.68H9.303" />
      </g>
      <g>
        <path class="a" d="M7.139 59.566h5.771v5.771H7.139z" />
        <path class="c" d="M10.024 61.73v1.443M10.746 62.451H9.303" />
      </g>
      <g>
        <path class="a" d="M7.139 65.337h5.771v5.771H7.139z" />
        <path class="c" d="M10.024 67.501v1.443M10.746 68.222H9.303" />
      </g>
      <g>
        <path class="a" d="M7.139 71.107h5.771v5.771H7.139z" />
        <path class="c" d="M10.024 73.271v1.443M10.746 73.992H9.303" />
      </g>
      <g>
        <path class="a" d="M7.139 76.878h5.771v5.771H7.139z" />
        <path class="c" d="M10.024 79.042v1.443M10.746 79.763H9.303" />
      </g>
      <g>
        <path class="a" d="M7.139 82.648h5.771v5.771H7.139z" />
        <path class="c" d="M10.024 84.812v1.443M10.746 85.533H9.303" />
      </g>
      <g>
        <path class="a" d="M7.139 88.419h5.771v5.771H7.139z" />
        <path class="c" d="M10.024 90.583v1.443M10.746 91.304H9.303" />
      </g>
      <g>
        <path class="a" d="M7.139 94.19h5.771v5.771H7.139z" />
        <path class="c" d="M10.024 96.354v1.443M10.746 97.075H9.303" />
      </g>
      <g>
        <path class="a" d="M7.139 99.96h5.771v5.771H7.139z" />
        <path class="c" d="M10.024 102.124v1.443M10.746 102.845H9.303" />
      </g>
      <g>
        <path class="a" d="M7.139 105.731h5.771v5.771H7.139z" />
        <path class="c" d="M10.024 107.895v1.443M10.746 108.616H9.303" />
      </g>
      <g>
        <path class="a" d="M7.139 111.501h5.771v5.771H7.139z" />
        <path class="c" d="M10.024 113.665v1.443M10.746 114.386H9.303" />
      </g>
      <g>
        <path class="a" d="M7.139 117.272h5.771v5.771H7.139z" />
        <path class="c" d="M10.024 119.436v1.443M10.746 120.157H9.303" />
      </g>
      <g>
        <path class="a" d="M1.369-3.911H7.14V1.86H1.369z" />
        <path class="c" d="M4.254-1.747v1.443M4.976-1.026H3.533" />
      </g>
      <g>
        <path class="a" d="M1.369 1.86H7.14v5.771H1.369z" />
        <path class="c" d="M4.254 4.024v1.443M4.976 4.745H3.533" />
      </g>
      <g>
        <path class="a" d="M1.369 7.63H7.14v5.771H1.369z" />
        <path class="c" d="M4.254 9.794v1.443M4.976 10.515H3.533" />
      </g>
      <g>
        <path class="a" d="M1.369 13.401H7.14v5.771H1.369z" />
        <path class="c" d="M4.254 15.565v1.443M4.976 16.286H3.533" />
      </g>
      <g>
        <path class="a" d="M1.369 19.172H7.14v5.771H1.369z" />
        <path class="c" d="M4.254 21.336v1.443M4.976 22.057H3.533" />
      </g>
      <g>
        <path class="a" d="M1.369 24.942H7.14v5.771H1.369z" />
        <path class="c" d="M4.254 27.106v1.443M4.976 27.827H3.533" />
      </g>
      <g>
        <path class="a" d="M1.369 30.713H7.14v5.771H1.369z" />
        <path class="c" d="M4.254 32.877v1.443M4.976 33.598H3.533" />
      </g>
      <g>
        <path class="a" d="M1.369 36.484H7.14v5.771H1.369z" />
        <path class="c" d="M4.254 38.648v1.443M4.976 39.369H3.533" />
      </g>
      <g>
        <path class="a" d="M1.369 42.254H7.14v5.771H1.369z" />
        <path class="c" d="M4.254 44.418v1.443M4.976 45.139H3.533" />
      </g>
      <g>
        <path class="a" d="M1.369 48.025H7.14v5.771H1.369z" />
        <path class="c" d="M4.254 50.189v1.443M4.976 50.91H3.533" />
      </g>
      <g>
        <path class="a" d="M1.369 53.795H7.14v5.771H1.369z" />
        <path class="c" d="M4.254 55.959v1.443M4.976 56.68H3.533" />
      </g>
      <g>
        <path class="a" d="M1.369 59.566H7.14v5.771H1.369z" />
        <path class="c" d="M4.254 61.73v1.443M4.976 62.451H3.533" />
      </g>
      <g>
        <path class="a" d="M1.369 65.337H7.14v5.771H1.369z" />
        <path class="c" d="M4.254 67.501v1.443M4.976 68.222H3.533" />
      </g>
      <g>
        <path class="a" d="M1.369 71.107H7.14v5.771H1.369z" />
        <path class="c" d="M4.254 73.271v1.443M4.976 73.992H3.533" />
      </g>
      <g>
        <path class="a" d="M1.369 76.878H7.14v5.771H1.369z" />
        <path class="c" d="M4.254 79.042v1.443M4.976 79.763H3.533" />
      </g>
      <g>
        <path class="a" d="M1.369 82.648H7.14v5.771H1.369z" />
        <path class="c" d="M4.254 84.812v1.443M4.976 85.533H3.533" />
      </g>
      <g>
        <path class="a" d="M1.369 88.419H7.14v5.771H1.369z" />
        <path class="c" d="M4.254 90.583v1.443M4.976 91.304H3.533" />
      </g>
      <g>
        <path class="a" d="M1.369 94.19H7.14v5.771H1.369z" />
        <path class="c" d="M4.254 96.354v1.443M4.976 97.075H3.533" />
      </g>
      <g>
        <path class="a" d="M1.369 99.96H7.14v5.771H1.369z" />
        <path class="c" d="M4.254 102.124v1.443M4.976 102.845H3.533" />
      </g>
      <g>
        <path class="a" d="M1.369 105.731H7.14v5.771H1.369z" />
        <path class="c" d="M4.254 107.895v1.443M4.976 108.616H3.533" />
      </g>
      <g>
        <path class="a" d="M1.369 111.501H7.14v5.771H1.369z" />
        <path class="c" d="M4.254 113.665v1.443M4.976 114.386H3.533" />
      </g>
      <g>
        <path class="a" d="M1.369 117.272H7.14v5.771H1.369z" />
        <path class="c" d="M4.254 119.436v1.443M4.976 120.157H3.533" />
      </g>
      <g>
        <path class="a" d="M-4.402-3.911h5.771V1.86h-5.771z" />
        <path class="c" d="M-1.517-1.747v1.443M-.795-1.026h-1.443" />
      </g>
      <g>
        <path class="a" d="M-4.402 1.86h5.771v5.771h-5.771z" />
        <path class="c" d="M-1.517 4.024v1.443M-.795 4.745h-1.443" />
      </g>
      <g>
        <path class="a" d="M-4.402 7.63h5.771v5.771h-5.771z" />
        <path class="c" d="M-1.517 9.794v1.443M-.795 10.515h-1.443" />
      </g>
      <g>
        <path class="a" d="M-4.402 13.401h5.771v5.771h-5.771z" />
        <path class="c" d="M-1.517 15.565v1.443M-.795 16.286h-1.443" />
      </g>
      <g>
        <path class="a" d="M-4.402 19.172h5.771v5.771h-5.771z" />
        <path class="c" d="M-1.517 21.336v1.443M-.795 22.057h-1.443" />
      </g>
      <g>
        <path class="a" d="M-4.402 24.942h5.771v5.771h-5.771z" />
        <path class="c" d="M-1.517 27.106v1.443M-.795 27.827h-1.443" />
      </g>
      <g>
        <path class="a" d="M-4.402 30.713h5.771v5.771h-5.771z" />
        <path class="c" d="M-1.517 32.877v1.443M-.795 33.598h-1.443" />
      </g>
      <g>
        <path class="a" d="M-4.402 36.484h5.771v5.771h-5.771z" />
        <path class="c" d="M-1.517 38.648v1.443M-.795 39.369h-1.443" />
      </g>
      <g>
        <path class="a" d="M-4.402 42.254h5.771v5.771h-5.771z" />
        <path class="c" d="M-1.517 44.418v1.443M-.795 45.139h-1.443" />
      </g>
      <g>
        <path class="a" d="M-4.402 48.025h5.771v5.771h-5.771z" />
        <path class="c" d="M-1.517 50.189v1.443M-.795 50.91h-1.443" />
      </g>
      <g>
        <path class="a" d="M-4.402 53.795h5.771v5.771h-5.771z" />
        <path class="c" d="M-1.517 55.959v1.443M-.795 56.68h-1.443" />
      </g>
      <g>
        <path class="a" d="M-4.402 59.566h5.771v5.771h-5.771z" />
        <path class="c" d="M-1.517 61.73v1.443M-.795 62.451h-1.443" />
      </g>
      <g>
        <path class="a" d="M-4.402 65.337h5.771v5.771h-5.771z" />
        <path class="c" d="M-1.517 67.501v1.443M-.795 68.222h-1.443" />
      </g>
      <g>
        <path class="a" d="M-4.402 71.107h5.771v5.771h-5.771z" />
        <path class="c" d="M-1.517 73.271v1.443M-.795 73.992h-1.443" />
      </g>
      <g>
        <path class="a" d="M-4.402 76.878h5.771v5.771h-5.771z" />
        <path class="c" d="M-1.517 79.042v1.443M-.795 79.763h-1.443" />
      </g>
      <g>
        <path class="a" d="M-4.402 82.648h5.771v5.771h-5.771z" />
        <path class="c" d="M-1.517 84.812v1.443M-.795 85.533h-1.443" />
      </g>
      <g>
        <path class="a" d="M-4.402 88.419h5.771v5.771h-5.771z" />
        <path class="c" d="M-1.517 90.583v1.443M-.795 91.304h-1.443" />
      </g>
      <g>
        <path class="a" d="M-4.402 94.19h5.771v5.771h-5.771z" />
        <path class="c" d="M-1.517 96.354v1.443M-.795 97.075h-1.443" />
      </g>
      <g>
        <path class="a" d="M-4.402 99.96h5.771v5.771h-5.771z" />
        <path class="c" d="M-1.517 102.124v1.443M-.795 102.845h-1.443" />
      </g>
      <g>
        <path class="a" d="M-4.402 105.731h5.771v5.771h-5.771z" />
        <path class="c" d="M-1.517 107.895v1.443M-.795 108.616h-1.443" />
      </g>
      <g>
        <path class="a" d="M-4.402 111.501h5.771v5.771h-5.771z" />
        <path class="c" d="M-1.517 113.665v1.443M-.795 114.386h-1.443" />
      </g>
      <g>
        <path class="a" d="M-4.402 117.272h5.771v5.771h-5.771z" />
        <path class="c" d="M-1.517 119.436v1.443M-.795 120.157h-1.443" />
      </g>
    </g>
    <g transform="translate(55.01 41.961)">
      <rect width="108.535" height="84.644" rx="9" transform="translate(8.125 3.266)" fill="#ffac1a" />
      <path class="e" d="M4.061 14.492v62.776a14.5 14.5 0 0 0 14.514 14.488h87.1a14.5 14.5 0 0 0 14.515-14.488V14.492A14.5 14.5 0 0 0 105.675.004h-87.1A14.5 14.5 0 0 0 4.061 14.492ZM119.637 34.937h92.555M-6.412 48.937H4.062M-25.01 48.937h8.137" />
      <path class="e" d="m76.753 43.621 2.479-1.425a17.464 17.464 0 0 0-5.387-9.313l-2.478 1.424a14.821 14.821 0 0 0-3.865-2.231v-2.849a17.541 17.541 0 0 0-10.772 0v2.849a14.847 14.847 0 0 0-3.864 2.231l-2.49-1.411a17.464 17.464 0 0 0-5.387 9.313l2.478 1.425a14.807 14.807 0 0 0 .014 4.448l-2.478 1.425a17.463 17.463 0 0 0 5.386 9.313l2.478-1.425a14.856 14.856 0 0 0 3.864 2.231v2.848a17.541 17.541 0 0 0 10.772 0v-2.848a14.83 14.83 0 0 0 3.865-2.231l2.478 1.425a17.464 17.464 0 0 0 5.387-9.313l-2.479-1.425a14.852 14.852 0 0 0-.001-4.461Zm-14.636 8.95a6.72 6.72 0 1 1 6.731-6.72 6.726 6.726 0 0 1-6.733 6.721ZM188.027 17.878l23.598 17.679-25.692 16.177M329.301-20.785l15.042 11.27L327.963.788" />
    </g>
    <g transform="translate(0 112.33)">
      <path class="e" d="M85.5 86.567h40M347.465 86.567H405.5" />
      <rect class="f" width="212.91" height="166.043" rx="21" transform="translate(125.318 8.775)" />
      <path class="e" d="M318.441 0h-174.13a28.993 28.993 0 0 0-29.022 28.963v125.511a28.993 28.993 0 0 0 29.022 28.964h174.13a28.993 28.993 0 0 0 29.021-28.964V28.963A28.993 28.993 0 0 0 318.441 0Z" />
      <path class="g" d="M284.582 91.72a53.833 53.833 0 0 0-.58-8.015l8.9-5.116a62.71 62.71 0 0 0-19.347-33.454l-8.948 5.07a53.24 53.24 0 0 0-13.882-8.015V31.958a62.984 62.984 0 0 0-38.7 0V42.19a53.266 53.266 0 0 0-13.881 8.015l-8.9-5.117a62.72 62.72 0 0 0-19.347 33.452l8.9 5.119a53.491 53.491 0 0 0 0 16.025l-8.9 5.118a62.724 62.724 0 0 0 19.347 33.453l8.9-5.117a53.246 53.246 0 0 0 13.881 8.015v10.232a62.991 62.991 0 0 0 38.7 0v-10.232a53.22 53.22 0 0 0 13.882-8.015l8.9 5.117a62.716 62.716 0 0 0 19.35-33.453l-8.9-5.118a53.3 53.3 0 0 0 .625-7.964Zm-53.208 24.088a24.137 24.137 0 1 1 24.186-24.137 24.161 24.161 0 0 1-24.186 24.137Z" />
    </g>
    <g transform="translate(288.901 6.969)">
      <rect width="56.525" height="44.082" rx="4.069" transform="translate(2.425 2.326)" fill="#00d9c8" />
      <path d="M53.875-.26H7.782A7.676 7.676 0 0 0 .098 7.407V40.64a7.676 7.676 0 0 0 7.684 7.667h46.094a7.675 7.675 0 0 0 7.684-7.667V7.41a7.676 7.676 0 0 0-7.685-7.67Z" stroke="#6d6df7" fill="#00d9c8" />
      <ellipse class="e" cx="6.402" cy="6.389" rx="6.402" ry="6.389" transform="translate(24.328 17.878)" />
      <path class="e" d="M44.958 23.869a14.262 14.262 0 0 0-.152-2.121l2.355-1.355a16.609 16.609 0 0 0-5.123-8.855l-2.367 1.341a14.126 14.126 0 0 0-3.676-2.121V8.052a16.671 16.671 0 0 0-10.243 0v2.709a14.088 14.088 0 0 0-3.675 2.121l-2.355-1.354a16.6 16.6 0 0 0-5.122 8.856l2.355 1.354a14.17 14.17 0 0 0 0 4.242L14.6 27.334a16.6 16.6 0 0 0 5.122 8.856l2.355-1.354a14.1 14.1 0 0 0 3.675 2.122v2.709a16.678 16.678 0 0 0 10.243 0v-2.715a14.142 14.142 0 0 0 3.676-2.122l2.355 1.354a16.605 16.605 0 0 0 5.121-8.856l-2.356-1.354a13.863 13.863 0 0 0 .167-2.105Z" />
    </g>
    <path class="e" d="M246.755 31.823h42.146M214.755 31.823h17.146M350.456 31.824H400" />
    <circle class="g" cx="4.634" cy="4.634" transform="translate(110.656 193.767)" r="4.634" />
    <circle class="g" cx="2.634" cy="2.634" transform="translate(69.656 195.767)" r="2.634" />
    <g>
      <path class="g" d="m303.793 82.445 6.74-3.891a.253.253 0 0 0 0-.438l-6.746-3.9a.253.253 0 0 0-.379.219l.005 7.792a.253.253 0 0 0 .38.218Z" />
      <path class="e" d="m319.231 84.432 10-5.771a.375.375 0 0 0 0-.649l-10-5.785a.375.375 0 0 0-.563.325l.008 11.556a.375.375 0 0 0 .555.324Z" />
      <path d="m336.341 85.609 11.922-6.883a.447.447 0 0 0 0-.775l-11.932-6.9a.447.447 0 0 0-.672.387l.01 13.782a.447.447 0 0 0 .672.389Z" fill="#653dd3" />
    </g>
    <g transform="translate(59.029 1.961)">
      <circle class="f" cx="2.504" cy="2.504" r="2.504" />
      <circle class="g" cx="2.504" cy="2.504" r="2.504" transform="translate(15.008)" />
      <circle class="g" cx="2.504" cy="2.504" r="2.504" transform="translate(30.012)" />
    </g>
    <g>
      <path class="k" d="m373.864 214.65 47.709-27.543a1.991 1.991 0 0 1 2.986 1.725v17.835a3.728 3.728 0 0 1-1.866 3.233l-47.706 27.545a1.993 1.993 0 0 1-2.99-1.725v-17.834a3.736 3.736 0 0 1 1.867-3.236Z" />
      <path class="k" d="m422.693 186.581-47.706-27.545a1.993 1.993 0 0 0-2.99 1.725v17.835a3.736 3.736 0 0 0 1.867 3.235l47.709 27.543a1.99 1.99 0 0 0 2.986-1.723V189.81a3.73 3.73 0 0 0-1.866-3.229Z" />
      <path class="k" d="m419.753 210.248-.015-24.006a.779.779 0 0 1 1.169-.675l20.781 12.017a.777.777 0 0 1 0 1.349l-20.766 11.989a.78.78 0 0 1-1.169-.674Z" />
    </g>
  </g>
</svg>