 <svg width="16" height="16" viewBox="0 0 16 16" fill="none" xmlns="http://www.w3.org/2000/svg"
                        style="vertical-align: baseline">
                        <path
                          d="M3.57143 16H0.25V5.30812H3.57143V16ZM1.89286 3.87777C0.857143 3.87777 0 2.9838 0 1.91103C0 0.444922 1.57143 -0.484807 2.85714 0.266128C3.46429 0.587957 3.82143 1.23162 3.82143 1.91103C3.82143 2.9838 2.96429 3.87777 1.89286 3.87777ZM15.9643 16H12.6786V10.815C12.6786 9.56342 12.6429 7.99003 10.9286 7.99003C9.21429 7.99003 8.96429 9.3131 8.96429 10.7077V16H5.64286V5.30812H8.82143V6.77423H8.85714C9.32143 5.95178 10.3929 5.05781 12 5.05781C15.3571 5.05781 16 7.27485 16 10.1356V16H15.9643Z"
                          fill="#99A4B5" />
                      </svg>