<svg width="18" height="16" viewBox="0 0 18 16" fill="none" xmlns="http://www.w3.org/2000/svg"
                        style="vertical-align: baseline">
                        <path
                          d="M16.0096 4.37378C16.0096 4.54727 16.0096 4.68607 16.0096 4.85956C16.0096 9.6827 12.3931 15.1998 5.74577 15.1998C3.67923 15.1998 1.78491 14.6099 0.200562 13.569C0.4761 13.6037 0.751638 13.6384 1.06162 13.6384C2.74929 13.6384 4.29919 13.0485 5.53911 12.0769C3.95477 12.0422 2.61152 11.0012 2.16377 9.5439C2.40487 9.5786 2.61152 9.6133 2.85262 9.6133C3.1626 9.6133 3.50702 9.5439 3.78256 9.4745C2.12933 9.12751 0.889407 7.67017 0.889407 5.90053V5.86583C1.3716 6.14342 1.95712 6.28221 2.54264 6.31691C1.54381 5.65764 0.923849 4.54727 0.923849 3.29812C0.923849 2.60414 1.09606 1.97956 1.40604 1.45908C3.19704 3.64511 5.88354 5.10246 8.88001 5.27595C8.81113 4.99836 8.77669 4.72077 8.77669 4.44318C8.77669 2.43065 10.3955 0.799805 12.3931 0.799805C13.4264 0.799805 14.3563 1.21619 15.0452 1.94486C15.8374 1.77137 16.6295 1.45908 17.3184 1.0427C17.0428 1.91017 16.4918 2.60414 15.734 3.05523C16.4573 2.98583 17.1806 2.77764 17.8006 2.50005C17.3184 3.22872 16.6984 3.8533 16.0096 4.37378Z"
                          fill="#99A4B5" />
                      </svg>